<?xml version="1.0" encoding="utf-8"?>
<!-- Generator: Adobe Illustrator 25.2.3, SVG Export Plug-In . SVG Version: 6.00 Build 0)  -->
<svg version="1.1" id="圖層_1" xmlns="http://www.w3.org/2000/svg" xmlns:xlink="http://www.w3.org/1999/xlink" x="0px" y="0px"
	 viewBox="0 0 300 300" style="enable-background:new 0 0 300 300;" xml:space="preserve">
<style type="text/css">
	.st0{fill:#E97A26;}
</style>
<g>
	<path class="st0" d="M45.4,156.2H26.6l-4.9,10.6h-7.1l21.6-46.5l20.9,46.5H50L45.4,156.2z M42.7,150l-6.5-14.9L29.4,150H42.7z"/>
	<path class="st0" d="M67.8,181.8h-6.4v-42.6h6.4v3c2.5-2.5,5.4-3.8,8.5-3.8c3.8,0,6.9,1.4,9.4,4.2c2.5,2.8,3.7,6.3,3.7,10.5
		c0,4.1-1.2,7.6-3.7,10.4c-2.4,2.7-5.5,4.1-9.3,4.1c-3.2,0-6.1-1.3-8.7-3.9C67.8,163.7,67.8,181.8,67.8,181.8z M83,153.2
		c0-2.7-0.7-4.8-2.2-6.5c-1.5-1.7-3.3-2.5-5.5-2.5c-2.3,0-4.2,0.8-5.7,2.4c-1.5,1.6-2.2,3.7-2.2,6.4c0,2.6,0.7,4.7,2.2,6.4
		c1.4,1.6,3.3,2.5,5.7,2.5c2.2,0,4-0.8,5.5-2.5C82.2,157.7,83,155.7,83,153.2z"/>
	<path class="st0" d="M102.2,181.8h-6.4v-42.6h6.4v3c2.5-2.5,5.4-3.8,8.5-3.8c3.8,0,6.9,1.4,9.4,4.2c2.5,2.8,3.7,6.3,3.7,10.5
		c0,4.1-1.2,7.6-3.7,10.4c-2.4,2.7-5.5,4.1-9.3,4.1c-3.2,0-6.1-1.3-8.7-3.9L102.2,181.8L102.2,181.8z M117.4,153.2
		c0-2.7-0.7-4.8-2.2-6.5c-1.5-1.7-3.3-2.5-5.5-2.5c-2.3,0-4.2,0.8-5.7,2.4s-2.2,3.7-2.2,6.4c0,2.6,0.7,4.7,2.2,6.4
		c1.4,1.6,3.3,2.5,5.7,2.5c2.2,0,4-0.8,5.5-2.5C116.6,157.7,117.4,155.7,117.4,153.2z"/>
	<path class="st0" d="M129.8,123.1l11.4,29.2L153,121l11.4,31.4l12.1-29.2h7.2l-19.5,46.5l-11.3-31l-11.7,31l-18.6-46.6H129.8z"/>
	<path class="st0" d="M181.8,152.8c0-4,1.4-7.4,4.3-10.2c2.8-2.8,6.3-4.2,10.4-4.2c4.1,0,7.6,1.4,10.5,4.2c2.8,2.8,4.2,6.3,4.2,10.4
		c0,4.1-1.4,7.6-4.3,10.4c-2.9,2.8-6.4,4.2-10.6,4.2c-4.1,0-7.6-1.4-10.4-4.2C183.3,160.6,181.8,157.1,181.8,152.8z M188.4,152.9
		c0,2.8,0.7,4.9,2.2,6.6c1.5,1.6,3.5,2.4,6,2.4c2.5,0,4.5-0.8,6-2.4c1.5-1.6,2.3-3.7,2.3-6.5c0-2.7-0.7-4.8-2.3-6.5s-3.5-2.4-6-2.4
		c-2.4,0-4.4,0.8-5.9,2.4C189.2,148.3,188.4,150.4,188.4,152.9z"/>
	<path class="st0" d="M217.5,139.2h6.4v2.5c1.2-1.2,2.2-2.1,3.1-2.5c0.9-0.5,2-0.7,3.3-0.7c1.7,0,3.5,0.6,5.3,1.6l-2.9,5.8
		c-1.2-0.8-2.4-1.3-3.6-1.3c-3.5,0-5.2,2.6-5.2,7.9v14.3h-6.4L217.5,139.2L217.5,139.2z"/>
	<path class="st0" d="M245.7,119v29.2l9-8.9h8.5l-12,11.6l12.8,16h-8.3l-9.1-11.7l-1,1v10.6h-6.4V119H245.7z"/>
	<path class="st0" d="M283.5,143.9l-5.3,2.8c-0.8-1.7-1.9-2.5-3.1-2.5c-0.6,0-1.1,0.2-1.5,0.6c-0.4,0.4-0.6,0.9-0.6,1.5
		c0,1.1,1.2,2.1,3.7,3.1c3.4,1.5,5.7,2.8,6.8,4c1.2,1.2,1.8,2.9,1.8,4.9c0,2.7-1,4.9-2.9,6.7c-1.9,1.7-4.2,2.5-6.9,2.5
		c-4.6,0-7.9-2.3-9.8-6.8l5.4-2.5c0.7,1.3,1.3,2.2,1.8,2.5c0.8,0.7,1.7,1.1,2.8,1.1c2.2,0,3.2-1,3.2-2.9c0-1.1-0.8-2.2-2.5-3.2
		c-0.6-0.3-1.3-0.6-1.9-1c-0.6-0.3-1.3-0.6-1.9-1c-1.9-0.9-3.2-1.8-3.9-2.7c-1-1.1-1.5-2.7-1.5-4.5c0-2.4,0.8-4.4,2.5-5.9
		c1.7-1.6,3.7-2.4,6.1-2.4C279.1,138.4,281.8,140.3,283.5,143.9z"/>
</g>
</svg>
