<?xml version="1.0" encoding="utf-8"?>
<!-- Generator: Adobe Illustrator 25.2.3, SVG Export Plug-In . SVG Version: 6.00 Build 0)  -->
<svg version="1.1" id="圖層_1" xmlns="http://www.w3.org/2000/svg" xmlns:xlink="http://www.w3.org/1999/xlink" x="0px" y="0px"
	 viewBox="0 0 300 300" style="enable-background:new 0 0 300 300;" xml:space="preserve">
<style type="text/css">
	.st0{fill:url(#SVGID_1_);}
	.st1{fill:url(#SVGID_2_);}
	.st2{fill:url(#SVGID_3_);}
	.st3{fill:url(#SVGID_4_);}
	.st4{fill:url(#SVGID_5_);}
	.st5{fill:url(#SVGID_6_);}
	.st6{fill:url(#SVGID_7_);}
	.st7{fill:#1C2C65;}
	.st8{fill:#7F8080;}
	.st9{fill:#FFFFFF;}
</style>
<linearGradient id="SVGID_1_" gradientUnits="userSpaceOnUse" x1="18.8684" y1="385.8783" x2="281.0395" y2="385.8783" gradientTransform="matrix(1 0 0 1 0 -215.4646)">
	<stop  offset="0" style="stop-color:#040000;stop-opacity:0"/>
	<stop  offset="0.5" style="stop-color:#040000"/>
	<stop  offset="1" style="stop-color:#040000;stop-opacity:0"/>
</linearGradient>
<rect x="18.9" y="168.4" class="st0" width="262.2" height="4.1"/>
<radialGradient id="SVGID_2_" cx="103.7522" cy="399.5283" r="28.1788" gradientTransform="matrix(1 0 0 1 0 -215.4646)" gradientUnits="userSpaceOnUse">
	<stop  offset="0.17" style="stop-color:#88BE43"/>
	<stop  offset="1" style="stop-color:#046535"/>
</radialGradient>
<circle class="st1" cx="106.7" cy="189.2" r="27.8"/>
<radialGradient id="SVGID_3_" cx="92.2681" cy="334.0775" r="58.8301" gradientTransform="matrix(1 0 0 1 0 -215.4646)" gradientUnits="userSpaceOnUse">
	<stop  offset="0" style="stop-color:#103676"/>
	<stop  offset="1" style="stop-color:#151B3C"/>
</radialGradient>
<path class="st2" d="M111.8,124.2c-3.1,0.2-5.9-1-7.8-3.3c-0.8-0.8-0.8-2.2,0-3.1c0.2-0.2,0.4-0.4,0.8-0.4c1-0.6,2-0.8,3.1-0.8
	c4.1,0.2,8.2-1,11.6-3.5c1.4-0.8,3.3-0.6,4.7-1.2c1.2-0.6,2.2-1.6,2.9-2.9c2.2-4.5,1-9,1.4-13.5c0.2-2.2,0.2-4.3,0-6.5
	c0-1.2,0.4-1.6,1.6-1.6c1.4,0,2.9,0,4.3-0.2c1-0.2,2,0.2,2.5,1.2c0.4,6.5-1.4,13.1-1.6,19.8c2-0.6,4.3-1,6.3-1.6
	c0.2,0,0.6-0.2,0.8-0.4c2.7-1.2,5.3-2.2,8-3.7c1-0.4,2.2-0.8,2.7-2c0.2-0.4,0.6-0.6,1.2-0.6c2.5,0.2,5.3-1.2,7.6,0.6
	c1,1,2.5,0.2,3.5,1c0,1.4,0,2.9,0,4.1c0,1.2-0.4,1.6-1.6,1.6c-2-0.2-4.3,0-6.3,0.6c-6.1,1.8-12.1,4.1-18.2,6.1
	c-1.4,0.4-2,1.8-3.7,1.8s-1.4,0.6-1.6,1.6c-0.2,2.5-1,4.7-2.2,6.7c-2,4.7-4.1,9.4-5.5,14.3c-0.2,0.6,0.2,1.6-0.6,2
	c-2.7,1.6-3.7,4.7-5.7,6.7c-1,1.2-2.5,2-4.1,2.7c-3.1,0.8-6.3,1.4-9.6,1.6c-1,0-2,0.4-3.3,0c-0.2-0.8,0.4-0.8,0.8-1
	c4.9-3.9,8.4-8.8,12.5-13.3c1.6-2,2.7-4.5,3.1-6.9c0.6-2.7,2-5.3,2.9-8c0.8-0.4,1.2-1.4,0.8-2.2c0,0,0,0,0-0.2
	c-0.2-0.4-0.6-0.6-1-0.6h-0.2C118.6,121.2,114.9,122,111.8,124.2z"/>
<radialGradient id="SVGID_4_" cx="92.2681" cy="334.0775" r="58.8301" gradientTransform="matrix(1 0 0 1 0 -215.4646)" gradientUnits="userSpaceOnUse">
	<stop  offset="0" style="stop-color:#103676"/>
	<stop  offset="1" style="stop-color:#151B3C"/>
</radialGradient>
<path class="st3" d="M136,133.4c2.7-0.4,5.3-0.6,8-0.4c3.1,0.6,6.5,0.8,9.2,2.9c1.8,1.6,4.1,2.7,6.5,3.1c0,0.4,0.4,0.8,0.8,1
	c2,1.6,4.3,2.7,6.5,3.5c0.2,0,0.2,0,0.4,0c3.1,3.7,6.1,7.4,9.4,11.2c1.2,1.4,1.6,3.7,0.6,5.5c-1.2,2.9-4.3,4.5-7.4,4.1
	c-4.3,0.4-6.3-2.9-9-5.3c-3.1-2.9-5.1-6.9-8.8-9.2c-2.5-2.9-5.9-3.3-9.2-4.3l-0.8-0.4c-0.2-0.4-0.4-0.4-0.8-0.4
	c-3.5-1.6-6.7-4.1-9.2-6.9c0-0.8,0-1.6,0-2.7c0-1,0.6-1.2,1.2-1.4l0.8,0.2c0.4,0.4,0.6,0.2,1,0L136,133.4L136,133.4z"/>
<radialGradient id="SVGID_5_" cx="92.2681" cy="334.0775" r="58.8301" gradientTransform="matrix(1 0 0 1 0 -215.4646)" gradientUnits="userSpaceOnUse">
	<stop  offset="0" style="stop-color:#103676"/>
	<stop  offset="1" style="stop-color:#151B3C"/>
</radialGradient>
<path class="st4" d="M77.7,116.9c-3.1,2-5.7,4.5-9.4,5.3c-0.4,0-0.8,0.4-1-0.2c0-0.2,0.4-0.4,0.6-0.6c4.7-1.6,7.8-5.1,10.6-9
	c0.4-0.8,0.4-1.8-0.2-2.5c-0.6-0.6-1.4,0-2.2,0.4c-1.8,1.2-3.7,2.2-5.7,3.3c-4.9,2.7-9.6,5.7-13.9,9c-2.2,1.6-4.9,3.1-7.6,3.9
	c-3.3,0.8-6.5,2.2-9.2,4.3c-2.2,1.8-4.9,3.3-7.6,4.5c-2.9,1-5.9-0.6-6.9-3.5c-0.2-0.6-0.2-1.2-0.2-1.8c0-2.5-0.6-5.1,1.6-7.2
	c0.6-0.8,1.6-1.4,2.9-1.2c4.3,0.6,8.4-1,11.2-4.3c3.3-3.3,7.4-5.7,10-9.6c2.5-3.5,5.7-6.3,8.4-9.6c2.5-2.7,3.7-6.3,3.1-10
	c-0.2-1.4-0.8-3.3,1.2-4.1l0.4-0.2h0.8l3.3,0.4l0.4,0.4c0,0.4,0.2,0.6,0.6,0.6l0.8,1c1.6,2,3.3,4.1,5.1,5.9c1,0.8,1.2,2.2,0.8,3.7
	c-1.6,4.3-5.5,6.3-8.8,8.4c-4.1,2.7-8.4,4.9-12.9,6.7c-6.1,1.2-9.4,6.7-14.1,10c2-0.4,4.1-1.2,5.9-2.2l8.4-2.5c3.5-0.8,6.7-2,10-3.7
	c4.3-1.6,8.4-3.5,12.3-5.9c0.6-0.4,1.6-0.6,1-1.6c-0.6-1-0.6-2-0.8-3.1c0.4-1.4,2-0.6,2.9-1.6c2-0.2,3.3,1.2,4.7,2
	c0.8,1,1.8,1.6,3.1,2c3.9,1,6.3,4.9,5.7,8.8c0,1.8-0.8,3.1-3.1,3.1c-1.8-0.2-3.7-0.2-5.5,0c-2.2,0.2-4.5-0.6-6.5,0.6l0,0
	C77.9,116.7,77.7,116.7,77.7,116.9z"/>
<radialGradient id="SVGID_6_" cx="92.2681" cy="334.0775" r="58.8301" gradientTransform="matrix(1 0 0 1 0 -215.4646)" gradientUnits="userSpaceOnUse">
	<stop  offset="0" style="stop-color:#103676"/>
	<stop  offset="1" style="stop-color:#151B3C"/>
</radialGradient>
<path class="st5" d="M52,129.5c0.6,0,1.2,0,2,0c2.5,0,3.1,0.6,2.9,3.1c-0.8,1-1.2,2.2-1.4,3.5c-0.2,5.9-0.2,11.6,0.2,17.6
	c0,0.6,0,1.4,1,1.4c1.6,0,3.5,0.6,5.1-0.6c3.9-1.4,7.8-2.5,11.6-3.1c1.8,0,3.3-1.4,3.3-3.1c0-0.2,0-0.2,0-0.4
	c0.4-3.3,1.2-6.3,2.7-9.2l0,0l0.4-0.4c0.6-1.4,1.8-2.5,2.2-4.1c0.2-1,0-1.2-1-1.4c-2.5-0.2-4.9,0.2-6.9,1.4c-4.3,2-8.2,4.3-12.3,6.7
	c-0.8,0-1.4,0.4-2,0s-0.4-1.2-0.2-1.8c0.6-1.2,0.8-2.5,0.6-3.9c0-0.2,0-0.2,0-0.4h0.2l0,0c0.6-0.2,1.2-0.4,1.8-0.4
	c3.9,0,7.6-1.4,10.4-4.3c0.8-0.8,2.5-0.8,3.3-1.6c4.9-4.1,10.6-2.5,16.1-2.5c0.4,0,0.8,0.4,1,0.6l0.2,0.8c-0.2,0.6,0,1.2,0.4,1.8
	c0,2.2-0.4,4.5-1,6.5c-0.8,2-2.9,3.3-3.1,5.7c0,0.2-0.2,0.2-0.2,0.2c-2.7,0.8-3.1,3.7-4.1,5.5c-1,1.8,0,3.1,2,3.1
	c0.8-0.2,1.4,0,2,0.6c1.4,1.6,1.2,4.3-0.4,5.7c-0.6,0.4-1.2,0.8-2,1c-7.2,1-14.3,2-21.7,2.7c-1.4,0.2-4.1-0.6-4.1,2.5
	c0,0.2-0.6,0.6-1,0.6c-1.2,0.4-2.7,0.6-4.1,0.4c-2-0.4-4.1-0.4-6.1-0.2c-0.8,0-1.6-0.2-2.7-0.4c-1.2-0.4-2.2-0.8-2.5-2.5s1-2,2-2.5
	s1.4-1.6,1-2.7l0,0c-1.2-4.9-1.4-9.8-0.4-14.7c0.2-2.9,1.4-5.5,3.5-7.4c0.6-0.6,0.8-1.2,0.4-2C51.4,130.8,51.6,130,52,129.5
	L52,129.5z"/>
<radialGradient id="SVGID_7_" cx="60.1455" cy="334.0775" r="27.3384" gradientTransform="matrix(1 0 0 1 0 -215.4646)" gradientUnits="userSpaceOnUse">
	<stop  offset="0" style="stop-color:#103676"/>
	<stop  offset="1" style="stop-color:#151B3C"/>
</radialGradient>
<path class="st6" d="M60.1,135.5v-0.4C60.1,135.3,60.1,135.3,60.1,135.5z"/>
<path class="st7" d="M194.2,133.8v11.2h12.7c0.4-0.2,0.6-0.4,1-0.8c0.8-0.8,1.4-1.2,1.6-1.2c0.8,0.4,1.6,0.8,2.2,1.4
	c0.8,0.6,1.2,1,1.2,1l0,0c1.2-0.4,2.5-1,3.7-1.6l0,0c-0.6-0.4-1-0.8-1.4-1.2c-0.8-0.8-1.4-1.6-1.8-2.7h-2.2l-0.8-1.4
	c2,0.2,4.3,0.2,6.3,0.2h5.1l1-0.8l0.4-0.2c-0.6,0-1.2,0-1.8-0.2c-1-0.2-1.6-1-1.6-2.7V133h-3.3c-0.2,1.6-1.2,3.3-2.7,4.1
	c-1.2,0.6-2.7,1-4.1,1l-0.2-0.2c1.8-0.8,3.1-2.9,2.9-4.9c0-0.8-0.2-1.6-0.4-2.2c1.6,0.4,3.5,0.8,4.9,1.4h2.5l1.2-1
	c0.4-0.2,0.8-0.4,1.2-0.6c0.8,0.2,1.6,0.4,2.2,0.8c1,0.6,1.4,1,1.4,1.4c0,0.4-0.2,0.4-0.8,0.8c-0.6,0.4-1,0.6-1,0.8s0,0.6,0.4,0.6
	c0.4,0.2,1,0.2,1.4,0.2h1c0.4,0,0.8-0.2,1.2-0.6c0.2-0.4,0.6-1,1-1.8l0.6,0.2l0.2,0.6c0,0.4,0.2,1,0.6,1.2c0.6,0.6,0.8,0.8,0.8,1
	c0,0.6-0.6,1-1.6,1.2c-1.2,0.2-2.5,0.4-3.9,0.4l1,0.6c1.2,0.8,1.6,1.2,1.6,1.4c0,0.2-0.4,0.4-1.2,0.4c-0.6,0-1,0-1.4,0.2
	c-0.8,1-1.8,1.8-3.1,2.7l0,0c2.7,0.6,5.3,0.8,8,1l-0.2,0.6c-0.8,0.2-1.4,0.6-1.8,1.4c0.2,0.2,0.6,0.6,1,0.8c1,0.8,1.6,1.4,1.6,1.6
	c0,0.2-0.2,0.6-0.8,0.6h-14.5v2.9h5.5l1.4-1c0.4-0.4,0.8-0.6,1.4-0.6c1,0.2,1.8,0.6,2.7,1c1.4,0.8,2.2,1.4,2.2,1.8
	c0,0.4-0.4,0.6-1,1c-0.6,0.4-0.8,0.8-0.8,1v1.2l0.2,7.2c0,0.4-0.8,0.6-2.5,0.8h-1.4c-0.8,0-1.2-0.4-1.2-1v-0.6h-25.1v0.8
	c0,0.4-0.8,0.6-2.2,0.8h-1.4c-1,0-1.4-0.4-1.4-1c0.2-0.6,0.2-1.4,0.2-2v-7.8c0-0.8,0-1.6-0.2-2.9c1.8,0.4,3.7,1,5.5,1.6h4.9
	c0-0.6,0.2-1.4,0.2-2v-0.8h-8c-2.7,0-4.7,0-5.7,0.2l-0.8-1.4c2.2,0.2,4.3,0.4,6.5,0.2H224c0.4-0.4,1-0.8,1.4-1.2l0,0
	c-0.6,0-1-0.2-1.6-0.4c-1.6-0.4-3.3-0.8-4.7-1.6l-1.2,0.4c-2.7,0.8-5.5,1.4-8.4,1.8l-0.2-0.2c0.8-0.2,1.6-0.4,2.7-0.8h-17.6v0.4
	c0,0.4-0.6,0.8-2,1c-0.6,0-1,0-1.4,0c-0.8,0-1.2-0.4-1.2-1c0-1,0.2-2.2,0.2-3.3v-7.8c0-1.6,0-3.1-0.2-4.5c1.8,0.4,3.7,1,5.5,1.6h9.8
	l1-0.8c0.8-0.8,1.4-1,1.6-1c0.8,0.2,1.6,0.8,2.2,1.2c0.8,0.6,1.2,0.8,1.2,1s-0.2,0.6-0.4,0.6c0,0,0,0-0.2,0h-12.3
	c0.6,0.2,1.2,0.2,1.6,0.4c1,0.2,1.4,0.6,1.4,0.8s-0.2,0.4-0.8,0.4c-0.4,0-0.6,0-0.8,0.2l-0.4,0.4h4.9l0.8-0.6
	c0.4-0.4,0.8-0.6,1.4-0.8c0.6,0.2,1.2,0.6,1.8,1c0.6,0.4,1,0.8,1,0.8c0,0.4-0.2,0.6-0.6,0.6h-4.5c0,1-0.2,1.8-0.2,2.5h1.4
	c0.4-0.2,0.6-0.4,1-0.8c0.4-0.4,0.8-0.6,1.2-0.8c0.6,0.2,1.2,0.4,1.6,1c0.8,0.6,1.2,1,1.2,1.2c0,0.2-0.2,0.6-0.6,0.6h-6.1
	c0,0.2-0.2,0.2-0.2,0.4c1.2,0.2,2.7,0.4,3.9,0.6c0.8,0.2,1.2,0.6,1.2,0.8c0,0.6-0.4,1.2-0.8,1.4c-0.4,0.4-1,0.6-1.6,0.6
	s-1-0.4-1.4-0.8c-0.4-0.6-1-1.2-1.8-1.6c-0.2,0.2-0.4,0.6-0.6,0.8c-0.8,0.6-1.6,1-2.5,1.4c-1.6,0.6-3.3,1-4.9,1.2v-0.4
	c0.8-0.4,1.8-0.8,2.7-1.2c0.6-0.4,1-0.8,1.4-1.4c0.4-0.4,0.6-1,0.8-1.6c-2,0-3.5,0-4.5,0.2l-0.8-1.4c1.8,0.2,3.5,0.4,5.3,0.2
	c0-0.6,0.2-1.4,0.2-2.5h-2l-0.4,0.2c-0.8,0.6-1.8,1-2.7,1.4l-0.4-0.8c0.6-0.6,1-1.4,1.4-2.2c0.4-0.8,0.6-1.4,0.8-2.2H194.2z
	 M222.2,158.6v-1.2h-6.7c-1,0-2-0.2-3.1-0.6c-0.6-0.2-1-0.8-1-1.6v-2h-4.5c-0.2,0.2-0.2,0.4-0.4,0.8c-0.8,1-1.8,1.8-3.1,2.2
	c-1.6,0.8-3.5,1.4-5.3,1.6l-0.6-0.4c1-0.4,1.8-0.8,2.7-1.6c0.8-0.6,1.4-1.2,1.8-2c0-0.2,0.2-0.4,0.2-0.6h-5.1v5.3h25.1V158.6z
	 M222.2,161.8v-2.2h-25.1v2.2H222.2z M211.6,149.4h-3.9v0.8c0,0.6,0,1.4-0.2,2h4.1V149.4z M217.7,142c0.4,0.2,1,0.4,1.4,0.6
	c1-0.8,2-1.6,2.9-2.7h-7.4C215.6,140.8,216.7,141.6,217.7,142z M215.6,154.5c0,0.4,0.2,0.4,1,0.4h5.5v-1.6h-6.5V154.5z"/>
<path class="st7" d="M251.8,132.4c1.2,0.8,1.8,1.4,1.8,1.6c0,0.2-0.4,0.6-1.4,0.6c-1,0-1.6,0.4-1.8,0.6c-1.6,2.7-3.5,5.3-5.5,7.6
	c1.6,1,3.3,2.2,4.5,3.7c0.6,0.8,1,1.6,1.4,2.5c0.4,0.8,0.6,1.8,0.6,2.9s-0.2,2-1,2.9c-0.6,0.8-1.4,1.2-2.2,1.6
	c-0.6,0.4-1.4,0.6-2,0.6c-0.4,0-0.6-0.4-0.8-1.2c-0.2-0.8-1.4-1.6-3.3-2.2v9.4c0,0.4-0.8,0.8-2.5,1h-1.4c-1,0-1.4-0.4-1.4-1.2
	c0-1.2,0.2-2.5,0.2-3.9v-22.3c0-1.8-0.2-3.5-0.4-5.3c2.2,0.4,4.5,1,6.7,1.8h2.2c0.6-0.6,1.2-1,1.8-1.6c0.4-0.4,0.8-0.6,1.4-0.6
	C249.8,131.2,250.8,131.8,251.8,132.4z M242.2,152.8c1,0.2,1.8,0.2,2.9,0.2c0.6,0,1,0,1.6-0.4c0.4-0.6,0.4-1.2,0.4-1.8
	c0-1.4-0.2-2.7-0.8-3.9c-0.8-1.4-1.6-2.9-2.9-3.9c1.2-2.9,2.2-5.9,2.9-9h-3.9L242.2,152.8z M257.3,148.1h12.9c0.6-0.4,1-0.8,1.4-1.4
	c0.6-0.6,1.2-1.2,2-1.6c1,0.2,2,0.8,2.7,1.6c1.2,1,2,1.6,2,1.8c0,0.2-0.4,0.6-1,0.6h-8.2v9.6c0,0.6,0.2,1,0.6,1.2c0.6,0,1.4,0,2,0
	c0.6,0,1.2-0.2,1.6-0.6c0.6-1.4,1.2-3.1,1.6-4.7l1,0.2v2.5c0,0.8,0.4,1.6,1.2,2.2c0.6,0.6,1,1,1,1.6c0,0.6-0.4,1.2-1,1.4
	c-1.8,0.6-3.7,1-5.5,0.8h-2.7c-0.8,0-1.8,0-2.7-0.4c-1.4,0-2.5-1.2-2.5-2.7c0,0,0,0,0-0.2v-11h-2.9c-0.2,2-0.6,4.3-1.4,6.1
	c-0.6,1.2-1.4,2.5-2.5,3.5c-1.2,1-2.7,1.8-4.1,2.7c-2.2,1-4.7,1.8-7.2,2.5l-0.6-0.8c1.4-0.4,2.9-1.2,4.1-2c1.2-0.8,2.5-1.8,3.5-3.1
	c0.8-1,1.4-2.2,1.8-3.5c0.6-1.6,1-3.5,1-5.1c-1.8,0-3.3,0-4.3,0.2l-0.6-1.4C253,148.1,255.3,148.1,257.3,148.1L257.3,148.1z
	 M266.3,131.6c1.2,0,1.8,0.2,1.8,0.6c0,0.4-0.4,0.4-1,0.6s-1.2,0.6-1.2,1v2.5h4.7c0.6-0.4,1.2-0.8,1.6-1.2c0.4-0.4,0.8-0.8,1.4-0.8
	c1.2,0.4,2.2,0.8,3.1,1.6c1.4,1,2.2,1.6,2.2,2c0,0.4-0.4,0.6-1,0.6c-0.4,0-1,0-1.4,0.2c-1.6,0.8-3.3,1.6-4.9,2.2l0,0
	c1.2,1,1.6,1.4,1.6,1.6c0,0.2-0.2,0.6-0.8,0.6h-12.9c-2.7,0-4.7,0-5.7,0l-0.8-1.4c2.2,0.2,4.3,0.4,6.5,0.2h6.3
	c0.6-0.4,1-0.8,1.4-1.2c0.6-0.6,1.2-1,1.8-1.4c0.4,0,0.6,0.2,1,0.2c0.4-0.8,0.8-1.6,1.2-2.5h-15.9c0,0.6-0.2,1.4-0.2,2
	c-0.2,0.8-0.8,1.6-1.6,2c-0.4,0.2-0.8,0.4-1.4,0.4c-0.8,0-1.6-0.2-2.2-0.6c-0.6-0.2-0.8-0.8-0.8-1.4c0-0.2,0.4-0.6,1.4-1.2
	c1-0.4,1.8-0.8,2.7-1.6c0.6-0.6,1.2-1.4,1.4-2.5l0.8,0.2c0,0.8,0,1.4,0,1.8h5.3V134c0-1-0.2-2-0.4-3.1
	C262.4,131.2,264.5,131.4,266.3,131.6L266.3,131.6z"/>
<path class="st8" d="M143.5,178.6h9l11.9,17.4v-17.4h9.2v31.3h-9.2l-11.6-17.2v17.2h-9.2V178.6z"/>
<path class="st8" d="M177.6,178.6h29.4v7.8h-9.8v23.5h-9.6v-23.5h-9.8v-7.8H177.6z"/>
<path class="st8" d="M231.8,178.6h9.6v18.6c0,1.8-0.2,3.5-0.8,5.3c-0.6,1.6-1.4,3.1-2.7,4.3c-1,1.2-2.5,2-3.9,2.7
	c-2.2,0.8-4.5,1-6.7,1c-1.6,0-3.3-0.2-4.9-0.4c-1.6-0.2-3.1-0.6-4.5-1.2c-1.2-0.6-2.5-1.6-3.3-2.7c-1-1-1.6-2.2-2-3.7
	c-0.6-1.6-0.8-3.5-0.8-5.3v-18.6h9.6v19c-0.2,1.4,0.4,3.1,1.4,4.1s2.5,1.4,3.9,1.4c1.4,0,2.9-0.4,3.9-1.4s1.4-2.7,1.4-4.1
	L231.8,178.6z"/>
<path class="st8" d="M247.7,178.6h9.6v10.8H268v-10.8h9.8v31.3H268v-12.7h-10.6v12.7h-9.6V178.6z"/>
<polygon class="st9" points="124.5,182.9 113.5,182.9 113.5,171 100,171 100,182.9 89,182.9 89,196.4 100,196.4 100,207.4 
	113.5,207.4 113.5,196.4 124.5,196.4 "/>
</svg>
