<?xml version="1.0" encoding="utf-8"?>
<!-- Generator: Adobe Illustrator 25.2.3, SVG Export Plug-In . SVG Version: 6.00 Build 0)  -->
<svg version="1.2" baseProfile="tiny" id="圖層_1"
	 xmlns="http://www.w3.org/2000/svg" xmlns:xlink="http://www.w3.org/1999/xlink" x="0px" y="0px" viewBox="0 0 207.97 41.91"
	 overflow="visible" xml:space="preserve">
<g>
	<g>
		<polygon fill="#B81C2B" points="67.97,8.27 72.09,10.8 72.09,17.52 58.33,17.52 58.33,9.53 62.2,8.74 62.2,3.32 45.06,3.32 
			45.06,8.66 48.81,10.66 48.81,34.17 45.06,35.66 45.06,40.82 63.53,40.82 63.53,36.91 58.33,34.11 58.33,24.94 71.77,24.87 
			71.77,34.19 67.58,36.01 67.58,40.82 85.13,40.82 85.13,35.77 81.65,34.11 81.65,9.45 85.13,8.74 85.13,3.32 67.97,3.32 		"/>
		<polygon fill="#B81C2B" points="112.67,34.15 102.6,34.15 102.6,24.66 115.31,25.93 115.31,17.94 102.48,18.98 102.48,8.89 
			112.21,8.89 115.31,14.47 119.39,13.89 119.39,3.32 88.93,3.44 88.93,7.75 93.68,9.26 93.79,33 88.93,35.66 88.93,40.82 
			120.31,40.82 120.78,29.06 116.95,28.94 		"/>
		<path fill="#B81C2B" d="M192.57,3.32c-10.19-1.94-25.82,0-25.82,0l-0.58,4.32l4.52,3.02v23.27l-4.52,1.39v5.51
			c0,0,6.93,0.47,21.77-0.76c15.4-1.9,15.98-16.44,15.98-16.44S206.8,7.06,192.57,3.32z M192.69,31.84
			c-1.04,2.43-12.37,1.27-12.37,1.27V8.91c0,0,9.48-1.04,12.37,4.28C195.58,18.52,193.73,29.41,192.69,31.84z"/>
	</g>
	<path fill="#B81C2B" d="M39.98,34.66l-12-32.5l-9.5,1L5.65,34.66l-2.33,1.67v4.5h15.17v-4.17l-4.17-2.83l1.5-4.83h12.17l1.83,5.83
		l-4.17,0.67l-0.17,5.33h16.36v-4.5L39.98,34.66z M18.48,22.32l4.1-10.83l3.57,10.83H18.48z"/>
	<path fill="#B81C2B" d="M160.51,34.66l-12-32.5l-9.5,1l-12.83,31.5l-2.33,1.67v4.5h15.17v-4.17l-4.17-2.83l1.5-4.83h12.17
		l1.83,5.83l-4.17,0.67l-0.17,5.33h16.36v-4.5L160.51,34.66z M139.01,22.32l4.1-10.83l3.57,10.83H139.01z"/>
</g>
</svg>
